<?xml version="1.0" encoding="utf-8"?>
<!-- Generator: Adobe Illustrator 23.0.5, SVG Export Plug-In . SVG Version: 6.00 Build 0)  -->
<svg version="1.1" xmlns="http://www.w3.org/2000/svg" xmlns:xlink="http://www.w3.org/1999/xlink" x="0px" y="0px"
	 viewBox="0 0 116.5 132" style="enable-background:new 0 0 116.5 132;" xml:space="preserve">
<style type="text/css">
	.st0{fill:#FFFFFF;stroke:#000000;stroke-width:5;stroke-miterlimit:10;}
	.st1{display:none;}
	.st2{display:inline;}
	.st3{fill:none;stroke:#FFFFFF;stroke-width:6;stroke-miterlimit:10;}
	.st4{fill:#FFFFFF;}
</style>
<g id="Capa_3">
	<g id="Capa_8">
		<path d="M91.5,31.3H25.1c-6.6,0-12,5.4-12,12v66.4c0,6.6,5.4,12,12,12h66.4c6.6,0,12-5.4,12-12V43.3
			C103.5,36.7,98.1,31.3,91.5,31.3z"/>
		<path class="st0" d="M78.8,39.2h-3.7c-4.3,0-7.7-3.5-7.7-7.7V19.8c0-4.3,3.5-7.7,7.7-7.7h3.7c4.3,0,7.7,3.5,7.7,7.7v11.7
			C86.5,35.7,83,39.2,78.8,39.2z"/>
	</g>
</g>
<g id="Capa_7" class="st1">
</g>
<g id="Capa_3_copia" class="st1">
	<g id="Capa_5" class="st2">
		<path class="st3" d="M104.1,29H36c-10.9,0-19.8,8.9-19.8,19.8v33.6c0,10.9,8.9,19.8,19.8,19.8h68.1"/>
		<g>
			<path class="st3" d="M104.1,75.8c-66.4,0-67.3,0-72,0"/>
		</g>
		<g>
			<path class="st3" d="M104.1,56c-66.4,0-67.3,0-72,0"/>
		</g>
	</g>
	<g id="Capa_6_copia" class="st2">
	</g>
</g>
</svg>
